<svg width="24" height="24" viewBox="0 0 24 24" fill="none" xmlns="http://www.w3.org/2000/svg">
<g id="Iconly/Light-Outline/Camera">
<g id="Camera">
<path id="Stroke 1" fill-rule="evenodd" clip-rule="evenodd" d="M7.19406 4.83164C7.59601 4.10112 8.03328 3.61277 8.68213 3.35451C9.87114 2.88173 14.1295 2.88173 15.3176 3.35461C15.9661 3.61272 16.4035 4.10098 16.8058 4.83136L17.258 5.69851C17.2684 5.7157 17.2779 5.7308 17.2864 5.74381L17.3248 5.79631C17.5308 6.02081 17.8757 6.15644 18.1032 6.15644C20.2553 6.15644 22.0002 7.90103 22.0002 10.0524V15.8474C22.0002 18.5917 19.7745 20.8174 17.0302 20.8174H6.97024C4.22535 20.8174 2.00024 18.592 2.00024 15.8474V10.0524C2.00024 7.90103 3.74522 6.15644 5.89724 6.15644C6.12402 6.15644 6.46932 6.02062 6.67568 5.79631C6.67981 5.79182 6.68519 5.78513 6.69169 5.77627L6.74312 5.69739L7.19406 4.83164ZM15.4919 5.55502C15.2419 5.10118 15.016 4.84903 14.7629 4.74827L14.6436 4.70861C13.6144 4.41772 10.0347 4.43094 9.2366 4.74827C8.98358 4.84898 8.75793 5.10099 8.50826 5.55474L8.1234 6.29884L8.02868 6.47027C7.9496 6.6018 7.87051 6.71283 7.78019 6.81123C7.27373 7.36173 6.52449 7.65644 5.89724 7.65644L5.73315 7.66197C4.48599 7.7463 3.50024 8.78466 3.50024 10.0524V15.8474C3.50024 17.7636 5.05383 19.3174 6.97024 19.3174H17.0302C18.946 19.3174 20.5002 17.7632 20.5002 15.8474V10.0524C20.5002 8.72953 19.4269 7.65644 18.1032 7.65644L17.9291 7.64916C17.3406 7.60073 16.6795 7.3116 16.2197 6.81057C16.1306 6.71347 16.0519 6.60323 15.9733 6.47281C15.962 6.4541 15.948 6.42947 15.9319 6.40033L15.8158 6.18258L15.4919 5.55502Z" fill="black"/>
<path id="Stroke 13" d="M17.5045 8.50012C18.0568 8.50012 18.5045 8.94784 18.5045 9.50012C18.5045 10.013 18.1184 10.4356 17.6211 10.4934L17.5045 10.5001C16.9432 10.5001 16.4955 10.0524 16.4955 9.50012C16.4955 8.98729 16.8815 8.56461 17.3789 8.50685L17.5045 8.50012Z" fill="black"/>
<path id="Stroke 5" fill-rule="evenodd" clip-rule="evenodd" d="M8.07092 13.1282C8.07092 10.9579 9.82971 9.19916 11.9999 9.19916C14.1701 9.19916 15.9289 10.9579 15.9289 13.1282C15.9289 15.2984 14.1701 17.0572 11.9999 17.0572C9.82971 17.0572 8.07092 15.2984 8.07092 13.1282ZM14.4289 13.1282C14.4289 11.7864 13.3417 10.6992 11.9999 10.6992C10.6581 10.6992 9.57092 11.7864 9.57092 13.1282C9.57092 14.4699 10.6581 15.5572 11.9999 15.5572C13.3417 15.5572 14.4289 14.4699 14.4289 13.1282Z" fill="black"/>
</g>
</g>
</svg>
