<svg width="24" height="24" viewBox="0 0 24 24" fill="none" xmlns="http://www.w3.org/2000/svg">
<g id="Iconly/Light-Outline/Paper">
<g id="Paper">
<g id="Group 3">
<mask id="mask0_33437_4402" style="mask-type:alpha" maskUnits="userSpaceOnUse" x="3" y="2" width="18" height="20">
<path id="Clip 2" fill-rule="evenodd" clip-rule="evenodd" d="M3.00024 2.01184H20.0529V21.8653H3.00024V2.01184Z" fill="white"/>
</mask>
<g mask="url(#mask0_33437_4402)">
<path id="Fill 1" fill-rule="evenodd" clip-rule="evenodd" d="M7.57335 3.51184C5.91635 3.51184 4.54035 4.85384 4.50135 6.50884V17.2038C4.46435 18.9168 5.81435 20.3278 7.51035 20.3658H15.5743C17.2433 20.2968 18.5653 18.9098 18.5533 17.2098V8.33984L13.9183 3.51184H7.58535H7.57335ZM7.58535 21.8658H7.47635C4.95435 21.8088 2.94635 19.7108 3.00135 17.1878V6.49084C3.05935 4.00984 5.10835 2.01184 7.57135 2.01184H7.58835H14.2383C14.4423 2.01184 14.6373 2.09484 14.7793 2.24184L19.8443 7.51884C19.9783 7.65784 20.0533 7.84484 20.0533 8.03784V17.2038C20.0713 19.7128 18.1173 21.7628 15.6043 21.8648L7.58535 21.8658Z" fill="black"/>
</g>
</g>
<path id="Fill 4" fill-rule="evenodd" clip-rule="evenodd" d="M19.2985 8.98443H16.5435C14.7135 8.97943 13.2255 7.48743 13.2255 5.65943V2.75043C13.2255 2.33643 13.5615 2.00043 13.9755 2.00043C14.3895 2.00043 14.7255 2.33643 14.7255 2.75043V5.65943C14.7255 6.66343 15.5425 7.48143 16.5455 7.48443H19.2985C19.7125 7.48443 20.0485 7.82043 20.0485 8.23443C20.0485 8.64843 19.7125 8.98443 19.2985 8.98443Z" fill="black"/>
<path id="Fill 6" fill-rule="evenodd" clip-rule="evenodd" d="M13.7887 16.1085H8.38867C7.97467 16.1085 7.63867 15.7725 7.63867 15.3585C7.63867 14.9445 7.97467 14.6085 8.38867 14.6085H13.7887C14.2027 14.6085 14.5387 14.9445 14.5387 15.3585C14.5387 15.7725 14.2027 16.1085 13.7887 16.1085Z" fill="black"/>
<path id="Fill 8" fill-rule="evenodd" clip-rule="evenodd" d="M11.7437 12.3565H8.3877C7.9737 12.3565 7.6377 12.0205 7.6377 11.6065C7.6377 11.1925 7.9737 10.8565 8.3877 10.8565H11.7437C12.1577 10.8565 12.4937 11.1925 12.4937 11.6065C12.4937 12.0205 12.1577 12.3565 11.7437 12.3565Z" fill="black"/>
</g>
</g>
</svg>
