<?xml version="1.0" standalone="no"?>
<!DOCTYPE svg PUBLIC "-//W3C//DTD SVG 20010904//EN"
 "http://www.w3.org/TR/2001/REC-SVG-20010904/DTD/svg10.dtd">
<svg version="1.0" xmlns="http://www.w3.org/2000/svg"
 width="224.000000pt" height="206.000000pt" viewBox="0 0 224.000000 206.000000"
 preserveAspectRatio="xMidYMid meet">

<g transform="translate(0.000000,206.000000) scale(0.100000,-0.100000)"
fill="#000000" stroke="none">
<path d="M561 1688 c-71 -48 -76 -62 -79 -236 -2 -148 -1 -159 20 -197 15 -26
39 -48 68 -62 39 -20 59 -23 177 -23 152 0 182 8 230 63 39 45 46 87 42 244
-4 129 -17 166 -72 207 -26 19 -44 21 -190 24 -156 3 -164 2 -196 -20z"/>
<path d="M1294 1691 c-17 -10 -42 -34 -55 -53 -22 -31 -24 -43 -27 -183 -3
-140 -2 -153 20 -195 17 -33 35 -51 68 -67 39 -21 59 -23 181 -23 123 0 140 2
179 23 30 16 51 37 67 67 21 39 23 56 23 179 0 122 -2 142 -22 181 -13 25 -38
55 -57 67 -32 21 -45 23 -190 23 -136 0 -160 -3 -187 -19z"/>
<path d="M575 970 c-28 -11 -72 -60 -84 -93 -6 -16 -11 -90 -11 -164 0 -159
15 -206 78 -245 33 -20 53 -23 165 -27 154 -4 205 7 247 55 44 50 53 94 49
240 -4 145 -17 180 -79 221 -31 22 -43 23 -189 22 -86 0 -165 -4 -176 -9z"/>
<path d="M1305 970 c-28 -11 -72 -60 -84 -93 -14 -37 -14 -287 0 -324 15 -42
68 -92 109 -103 45 -13 255 -13 300 0 45 12 97 65 110 111 14 47 13 268 -1
310 -14 40 -44 76 -81 95 -30 16 -317 19 -353 4z"/>
</g>
</svg>
