<?xml version="1.0" standalone="no"?>
<!DOCTYPE svg PUBLIC "-//W3C//DTD SVG 20010904//EN"
 "http://www.w3.org/TR/2001/REC-SVG-20010904/DTD/svg10.dtd">
<svg version="1.0" xmlns="http://www.w3.org/2000/svg"
 width="402.000000pt" height="416.000000pt" viewBox="0 0 402.000000 416.000000"
 preserveAspectRatio="xMidYMid meet">

<g transform="translate(0.000000,416.000000) scale(0.100000,-0.100000)"
fill="#000000" stroke="none">
<path d="M1917 3280 c-21 -6 -61 -21 -90 -35 -64 -30 -863 -670 -912 -730 -20
-24 -45 -69 -56 -100 -19 -55 -20 -79 -17 -654 l3 -598 42 -84 c49 -100 116
-172 201 -217 96 -51 156 -62 346 -62 194 0 228 10 289 81 51 59 57 94 57 313
0 205 7 245 45 260 9 3 103 6 208 6 205 -1 217 -3 236 -52 5 -14 10 -117 10
-230 0 -125 4 -216 11 -234 20 -53 62 -96 117 -121 52 -24 59 -24 241 -21 207
4 242 12 339 74 104 66 178 166 208 279 13 50 15 149 15 632 0 548 -1 576 -20
630 -11 32 -33 73 -48 93 -15 19 -215 185 -443 368 -481 388 -505 403 -652
408 -51 2 -109 -1 -130 -6z m222 -190 c45 -23 65 -38 553 -428 251 -200 312
-253 328 -288 20 -41 21 -56 18 -605 l-3 -564 -28 -57 c-31 -63 -85 -115 -156
-149 -40 -20 -66 -23 -199 -27 -129 -4 -156 -2 -177 12 l-25 16 0 203 c0 227
-9 277 -60 339 -17 20 -54 48 -84 63 -52 25 -56 26 -278 26 -248 1 -265 -3
-332 -61 -75 -67 -80 -87 -86 -343 -5 -214 -6 -230 -25 -243 -16 -12 -50 -15
-175 -12 -153 3 -157 4 -223 36 -49 24 -79 48 -107 84 -71 89 -71 87 -68 709
l3 554 29 40 c16 22 186 166 378 320 453 364 465 373 518 390 59 19 145 13
199 -15z"/>
</g>
</svg>
