<?xml version="1.0" standalone="no"?>
<!DOCTYPE svg PUBLIC "-//W3C//DTD SVG 20010904//EN"
 "http://www.w3.org/TR/2001/REC-SVG-20010904/DTD/svg10.dtd">
<svg version="1.0" xmlns="http://www.w3.org/2000/svg"
 viewBox="0 0 194.000000 206.000000"
 preserveAspectRatio="xMidYMid meet">

<g transform="translate(0.000000,206.000000) scale(0.100000,-0.100000)"
fill="#000000" stroke="none">
<path d="M880 1899 c-81 -16 -183 -74 -243 -139 -96 -103 -133 -212 -124 -358
13 -212 178 -389 393 -422 226 -35 445 105 514 328 103 332 -195 658 -540 591z
m214 -140 c69 -25 149 -97 182 -161 87 -172 17 -381 -155 -465 -48 -24 -68
-28 -146 -28 -108 0 -159 20 -233 89 -142 133 -143 352 -3 490 92 91 234 121
355 75z"/>
<path d="M750 799 c-315 -30 -470 -134 -470 -314 0 -151 109 -248 333 -296
121 -27 427 -36 591 -20 301 32 446 121 463 287 20 192 -145 311 -476 344
-117 11 -316 11 -441 -1z m525 -144 c155 -25 247 -78 261 -151 24 -128 -134
-197 -476 -211 -330 -12 -566 35 -627 127 -64 94 9 185 183 225 147 35 478 40
659 10z"/>
</g>
</svg>
