<?xml version="1.0" standalone="no"?>
<!DOCTYPE svg PUBLIC "-//W3C//DTD SVG 20010904//EN"
 "http://www.w3.org/TR/2001/REC-SVG-20010904/DTD/svg10.dtd">
<svg version="1.0" xmlns="http://www.w3.org/2000/svg"
 width="249.000000pt" height="206.000000pt" viewBox="0 0 249.000000 206.000000"
 preserveAspectRatio="xMidYMid meet">

<g transform="translate(0.000000,206.000000) scale(0.100000,-0.100000)"
fill="#000000" stroke="none">
<path d="M959 1491 c-172 -55 -267 -203 -257 -404 5 -106 25 -162 97 -272 81
-124 282 -301 433 -382 l42 -23 45 27 c156 89 350 261 428 381 79 118 111 243
93 359 -22 142 -108 257 -228 305 -86 34 -207 32 -285 -5 -52 -24 -61 -25 -80
-13 -36 23 -127 46 -181 45 -28 0 -76 -8 -107 -18z m246 -101 c63 -33 87 -37
104 -16 20 24 101 46 170 46 230 0 353 -250 238 -483 -63 -128 -191 -261 -366
-379 -72 -50 -74 -50 -105 -36 -103 50 -310 236 -380 342 -62 94 -80 148 -80
251 -1 108 24 174 86 231 62 55 111 74 199 74 66 0 85 -4 134 -30z"/>
<path d="M1460 1280 c-11 -21 2 -60 20 -60 22 0 71 -55 80 -90 13 -49 45 -63
71 -31 10 12 16 27 14 34 -2 7 -6 24 -9 39 -4 15 -20 44 -38 63 -54 63 -118
83 -138 45z"/>
</g>
</svg>
