<?xml version="1.0" standalone="no"?>
<!DOCTYPE svg PUBLIC "-//W3C//DTD SVG 20010904//EN"
 "http://www.w3.org/TR/2001/REC-SVG-20010904/DTD/svg10.dtd">
<svg version="1.0" xmlns="http://www.w3.org/2000/svg"
  viewBox="0 0 240.000000 203.000000"
 preserveAspectRatio="xMidYMid meet">

<g transform="translate(0.000000,203.000000) scale(0.100000,-0.100000)"
fill="#000000" stroke="none">
<path d="M985 1461 c-171 -45 -278 -226 -245 -412 15 -82 66 -188 127 -264 60
-73 189 -186 307 -267 88 -60 88 -61 120 -45 55 26 236 168 315 247 133 133
197 274 189 419 -10 179 -132 313 -298 328 -61 6 -149 -14 -201 -46 -30 -19
-31 -19 -89 11 -63 31 -167 45 -225 29z m605 -187 c52 -45 86 -138 60 -169
-31 -37 -80 -7 -80 49 0 17 -12 35 -40 57 -41 33 -49 56 -28 77 19 19 54 14
88 -14z"/>
</g>
</svg>
