<?xml version="1.0" standalone="no"?>
<!DOCTYPE svg PUBLIC "-//W3C//DTD SVG 20010904//EN"
 "http://www.w3.org/TR/2001/REC-SVG-20010904/DTD/svg10.dtd">
<svg version="1.0" xmlns="http://www.w3.org/2000/svg"
  viewBox="0 0 261.000000 204.000000"
 preserveAspectRatio="xMidYMid meet">

<g transform="translate(0.000000,204.000000) scale(0.100000,-0.100000)"
fill="#000000" stroke="none">
<path d="M1247 1560 c-72 -13 -171 -63 -222 -115 -70 -69 -94 -131 -104 -265
-8 -110 -8 -112 -52 -173 -37 -54 -44 -70 -47 -124 -10 -152 73 -233 260 -253
115 -12 330 -12 462 0 168 15 259 80 272 197 9 74 -1 112 -47 181 -39 59 -42
67 -53 180 -15 142 -35 189 -110 260 -64 61 -118 89 -205 108 -73 15 -84 15
-154 4z"/>
<path d="M1172 534 c-54 -38 -2 -117 94 -144 98 -28 233 40 222 112 -5 37 -42
48 -173 48 -93 0 -126 -4 -143 -16z"/>
</g>
</svg>
