<?xml version="1.0" standalone="no"?>
<!DOCTYPE svg PUBLIC "-//W3C//DTD SVG 20010904//EN"
 "http://www.w3.org/TR/2001/REC-SVG-20010904/DTD/svg10.dtd">
<svg version="1.0" xmlns="http://www.w3.org/2000/svg"
  viewBox="0 0 240.000000 201.000000"
 preserveAspectRatio="xMidYMid meet">

<g transform="translate(0.000000,201.000000) scale(0.100000,-0.100000)"
fill="#000000" stroke="none">
<path d="M1161 1554 c-122 -33 -227 -118 -281 -227 -24 -50 -33 -84 -41 -163
-8 -89 -14 -108 -56 -189 -46 -87 -48 -93 -48 -176 0 -78 3 -90 30 -135 39
-63 124 -109 240 -129 106 -19 462 -19 566 -1 131 24 210 70 252 150 34 64 30
173 -8 246 -15 30 -37 72 -48 92 -12 24 -22 72 -27 130 -9 100 -27 159 -71
224 -58 85 -168 160 -270 183 -62 15 -175 12 -238 -5z m282 -107 c130 -59 194
-156 207 -313 8 -89 13 -105 61 -200 46 -92 51 -108 46 -150 -6 -61 -31 -93
-97 -126 -72 -35 -171 -48 -375 -48 -350 0 -465 46 -465 187 0 41 8 67 41 129
51 97 58 117 68 225 15 164 95 262 256 316 63 21 191 11 258 -20z"/>
<path d="M1111 414 c-30 -21 -26 -45 12 -82 92 -89 242 -87 330 6 32 33 32 58
1 78 -19 13 -25 11 -65 -18 -24 -17 -57 -34 -74 -38 -40 -8 -94 6 -125 34 -35
32 -54 37 -79 20z"/>
</g>
</svg>
