<svg viewBox="0 0 24 24" fill="none" xmlns="http://www.w3.org/2000/svg">
<path fill-rule="evenodd" clip-rule="evenodd" d="M15.8498 2.50077C16.4808 2.50077 17.1108 2.58977 17.7098 2.79077C21.4008 3.99077 22.7308 8.04077 21.6198 11.5808C20.9898 13.3898 19.9598 15.0408 18.6108 16.3898C16.6798 18.2598 14.5608 19.9198 12.2798 21.3498L12.0298 21.5008L11.7698 21.3398C9.48077 19.9198 7.34977 18.2598 5.40077 16.3798C4.06077 15.0308 3.02977 13.3898 2.38977 11.5808C1.25977 8.04077 2.58977 3.99077 6.32077 2.76977C6.61077 2.66977 6.90977 2.59977 7.20977 2.56077H7.32977C7.61077 2.51977 7.88977 2.50077 8.16977 2.50077H8.27977C8.90977 2.51977 9.51977 2.62977 10.1108 2.83077H10.1698C10.2098 2.84977 10.2398 2.87077 10.2598 2.88977C10.4808 2.96077 10.6898 3.04077 10.8898 3.15077L11.2698 3.32077C11.3616 3.36974 11.4647 3.44457 11.5537 3.50924C11.6102 3.55021 11.661 3.58711 11.6998 3.61077C11.7161 3.6204 11.7327 3.63008 11.7494 3.63984C11.8351 3.68989 11.9245 3.74203 11.9998 3.79977C13.1108 2.95077 14.4598 2.49077 15.8498 2.50077ZM18.5098 9.70077C18.9198 9.68977 19.2698 9.36077 19.2998 8.93977V8.82077C19.3298 7.41977 18.4808 6.15077 17.1898 5.66077C16.7798 5.51977 16.3298 5.74077 16.1798 6.16077C16.0398 6.58077 16.2598 7.04077 16.6798 7.18977C17.3208 7.42977 17.7498 8.06077 17.7498 8.75977V8.79077C17.7308 9.01977 17.7998 9.24077 17.9398 9.41077C18.0798 9.58077 18.2898 9.67977 18.5098 9.70077Z" fill="black"/>
</svg>
