<?xml version="1.0" standalone="no"?>
<!DOCTYPE svg PUBLIC "-//W3C//DTD SVG 20010904//EN"
 "http://www.w3.org/TR/2001/REC-SVG-20010904/DTD/svg10.dtd">
<svg version="1.0" xmlns="http://www.w3.org/2000/svg"
 width="228.000000pt" height="204.000000pt" viewBox="0 0 228.000000 204.000000"
 preserveAspectRatio="xMidYMid meet">

<g transform="translate(0.000000,204.000000) scale(0.100000,-0.100000)"
fill="#000000" stroke="none">
<path d="M775 1443 c-74 -27 -87 -57 -83 -204 3 -100 6 -120 23 -139 34 -38
77 -50 182 -50 173 0 206 35 201 212 -3 117 -16 149 -73 177 -46 22 -191 25
-250 4z m235 -79 c20 -20 22 -206 2 -226 -9 -9 -45 -13 -118 -13 -132 0 -134
2 -134 125 0 129 17 143 165 134 44 -3 75 -10 85 -20z"/>
<path d="M1331 1451 c-88 -23 -115 -77 -109 -222 6 -152 36 -179 203 -179 107
0 150 13 183 55 20 25 22 40 22 142 0 129 -11 163 -62 189 -37 19 -184 28
-237 15z m211 -88 c15 -13 18 -33 18 -114 0 -124 -5 -129 -131 -129 -125 0
-134 9 -134 133 0 107 8 124 63 130 65 8 165 -3 184 -20z"/>
<path d="M765 906 c-62 -27 -70 -46 -73 -176 -6 -187 20 -214 198 -215 116 0
149 10 184 58 19 25 21 43 21 146 0 133 -11 162 -70 187 -44 18 -218 18 -260
0z m241 -77 c20 -22 31 -123 20 -184 -9 -48 -35 -59 -138 -59 -121 0 -128 7
-128 131 0 80 3 96 20 113 17 17 33 20 113 20 82 0 96 -3 113 -21z"/>
<path d="M1301 907 c-64 -22 -76 -52 -76 -187 0 -105 2 -122 21 -147 35 -48
68 -58 184 -58 178 0 204 28 198 215 -3 131 -11 149 -75 176 -40 17 -204 18
-252 1z m239 -77 c17 -17 20 -33 20 -113 0 -124 -7 -131 -128 -131 -114 0
-129 9 -138 80 -9 78 1 145 27 167 17 13 40 17 110 17 76 0 92 -3 109 -20z"/>
</g>
</svg>
